<svg version="1.1" id="Layer_1" xmlns="http://www.w3.org/2000/svg" xmlns:xlink="http://www.w3.org/1999/xlink" x="0px" y="0px"
	 width="100%" viewBox="0 0 360 360" enable-background="new 0 0 360 360" xml:space="preserve">
<path fill="#FC871F" opacity="1.000000" stroke="none" 
	d="
M170.000000,1.000000 
	C182.687561,1.000000 195.375122,1.000000 208.456970,1.344830 
	C208.511917,2.445062 208.285614,3.280892 207.814697,3.942679 
	C204.980438,7.925803 199.521973,10.580195 201.448090,16.996719 
	C201.605301,17.520473 199.986191,18.569517 199.203537,19.385090 
	C197.851654,20.793877 196.154343,22.012777 195.230530,23.663191 
	C192.822647,27.964983 191.263992,32.825111 188.410995,36.771740 
	C185.484161,40.820507 180.895248,43.669559 177.978439,47.723400 
	C172.974762,54.677628 168.695602,62.154129 164.140991,69.429344 
	C163.537262,70.393715 163.374542,71.891930 162.546722,72.418808 
	C153.241867,78.340927 150.447601,89.178429 143.857529,97.189911 
	C137.368607,105.078423 132.550186,114.341049 126.704437,123.100800 
	C125.982155,124.483635 125.554222,125.766426 125.081985,127.366516 
	C125.070297,128.108353 125.102913,128.532898 124.753708,128.978165 
	C123.181686,129.924072 121.721977,130.645737 120.844879,131.807327 
	C114.976608,139.578964 109.216972,147.432953 103.455338,155.284592 
	C100.993515,158.639450 98.399658,161.929703 96.317200,165.511734 
	C95.658791,166.644272 96.464317,168.627884 96.595940,170.175720 
	C94.998924,170.321899 93.043373,170.076813 91.471153,170.740219 
	C88.851379,171.845642 86.477150,173.533020 83.739090,175.229584 
	C80.807930,179.578445 81.163948,180.571396 86.055496,182.510559 
	C86.465363,182.596146 86.766891,182.539825 87.404633,182.451935 
	C88.159866,182.574753 88.578896,182.729111 89.127151,183.197937 
	C90.588585,184.357483 91.920784,185.202591 93.466728,186.183289 
	C91.579620,189.580353 90.489685,193.895264 87.723137,195.925430 
	C84.284866,198.448502 83.138786,201.686447 81.605385,205.050842 
	C81.482422,205.320648 81.070305,205.443069 80.854935,205.688675 
	C76.505402,210.648926 72.161789,215.614410 67.832909,220.592667 
	C67.628586,220.827667 67.392311,221.252762 67.472527,221.485260 
	C69.219643,226.548859 66.306633,229.124588 62.437294,231.365540 
	C61.730450,231.774918 61.633530,233.130692 61.078747,233.926727 
	C57.647717,238.849625 54.268467,243.813843 50.675049,248.616959 
	C46.409172,254.318970 41.914211,259.849365 37.615906,265.527802 
	C37.212635,266.060547 37.581486,267.132721 37.456997,267.933441 
	C37.314274,268.851501 37.261303,269.918976 36.754707,270.623291 
	C33.135380,275.655457 29.422390,280.620575 25.712820,285.587280 
	C24.241825,287.556793 22.385986,289.309357 21.261023,291.452362 
	C18.768667,296.200287 16.642385,301.139679 14.324854,305.980927 
	C14.048553,306.558044 13.573917,307.081696 13.085384,307.509247 
	C9.071097,311.022339 5.031738,314.506836 0.999998,318.000000 
	C1.000000,293.645782 1.000000,269.291534 1.337645,244.375565 
	C4.779727,240.455765 8.374399,237.427475 10.896622,233.677780 
	C18.437902,222.466400 25.487820,210.925949 32.872814,199.607452 
	C36.947166,193.362961 41.322262,187.315094 45.516125,181.147552 
	C45.866547,180.632217 45.732727,179.799713 46.056393,179.251938 
	C47.198292,177.319382 48.424519,175.435654 49.649521,173.553406 
	C52.857376,168.624481 54.669945,162.752533 60.601913,159.739044 
	C62.780476,158.632309 64.005516,155.627350 65.632088,153.463135 
	C66.624741,152.142380 68.190552,150.864044 68.396675,149.410370 
	C69.132935,144.217911 72.978279,141.519226 76.386337,138.401642 
	C77.238022,137.622559 78.704567,136.862427 78.781921,135.994904 
	C79.329269,129.856461 82.182632,125.079185 86.405861,120.732658 
	C88.631241,118.442307 89.902962,115.256927 91.874123,112.681435 
	C95.977928,107.319443 101.452133,102.641350 104.187347,96.683342 
	C108.175247,87.996628 113.997749,81.387459 121.313881,75.001389 
	C117.452530,70.653282 122.601707,68.026810 124.510712,65.141960 
	C128.208405,59.554111 133.679520,55.106430 137.169159,49.421112 
	C144.731155,37.101120 154.641373,26.209980 159.761353,12.353997 
	C160.580490,10.137198 163.366531,8.682276 165.127014,6.768213 
	C166.829422,4.917285 168.381744,2.928328 170.000000,1.000000 
M73.531937,181.845627 
	C76.510475,178.359970 76.253929,174.918289 72.763695,174.158493 
	C71.389381,173.859314 69.259232,174.384506 68.348045,175.355331 
	C67.448982,176.313232 66.906403,179.081879 67.532616,179.688721 
	C68.847054,180.962601 71.030815,181.339478 73.531937,181.845627 
z"/>
<path fill="#FB6B27" opacity="1.000000" stroke="none" 
	d="
M162.000000,361.000000 
	C151.312439,361.000000 140.624878,361.000000 129.544434,360.633850 
	C130.322327,357.761047 131.149445,355.007263 132.736572,352.800018 
	C135.893433,348.409698 139.842010,344.562622 142.775803,340.044556 
	C146.405884,334.454163 149.307236,328.393005 152.604599,322.581299 
	C153.070923,321.759430 154.067413,321.257568 154.696930,320.505798 
	C157.759750,316.847992 160.974625,313.295135 163.760498,309.434387 
	C166.319473,305.888092 167.943542,301.578918 170.849655,298.401733 
	C172.852203,296.212402 176.338577,295.380310 179.494705,294.052124 
	C182.019379,294.333618 185.097275,295.481140 186.214172,294.467621 
	C188.385513,292.497253 187.877426,289.469849 185.952621,286.967590 
	C186.207550,284.238586 186.172440,281.699677 186.492966,279.089752 
	C188.081116,277.377258 189.313629,275.735779 190.546143,274.094299 
	C189.479156,273.424316 188.412155,272.754364 187.277435,271.756195 
	C187.332901,269.623352 187.456055,267.818756 187.705139,265.761230 
	C187.915070,265.339752 187.999054,265.171173 188.424530,265.069946 
	C192.591141,266.162415 194.689224,264.575836 196.779053,261.219940 
	C199.537292,256.790710 203.392990,253.056274 206.628494,248.907425 
	C207.949310,247.213745 208.969543,245.263107 209.973175,243.348984 
	C212.579651,238.378006 215.037292,233.327576 217.729080,228.404404 
	C218.108017,227.711349 219.467743,227.558151 220.369644,227.146652 
	C222.022003,226.392746 223.671509,225.632568 225.633087,224.994232 
	C229.575348,227.925888 233.206726,230.738327 236.600769,233.366943 
	C240.510635,230.245270 240.404099,227.669144 237.613113,224.883270 
	C235.634323,222.908112 233.844193,220.743942 231.838699,218.337799 
	C231.054489,217.346878 230.401413,216.682343 229.629150,215.719513 
	C227.540909,213.186127 225.571869,210.951019 223.464844,208.404083 
	C222.539536,206.731934 221.752213,205.371597 220.981400,203.724854 
	C220.859024,202.890182 220.720108,202.341919 220.582596,201.395325 
	C219.852600,194.758713 222.505219,189.954178 227.304657,185.842010 
	C229.462555,184.939163 231.288269,184.112793 233.350128,183.295212 
	C233.586288,183.303986 234.002930,183.080856 234.356293,183.138214 
	C235.878510,183.006302 237.047379,182.817017 238.654846,182.617386 
	C241.385635,182.165405 243.677780,181.723770 246.277832,181.320465 
	C247.392212,181.187119 248.198669,181.015427 249.421051,180.878693 
	C254.576920,180.134476 259.316864,179.355316 264.341644,178.609772 
	C264.949249,178.456619 265.272003,178.269867 265.995422,178.160950 
	C268.594879,178.104889 270.793671,177.970993 273.367432,177.908142 
	C275.666687,176.702850 278.827209,175.737701 279.244080,174.081833 
	C279.988312,171.125580 277.222504,169.793518 274.378387,169.505051 
	C273.582397,169.424332 272.780426,169.402924 271.550232,169.261246 
	C267.082245,168.844208 263.045227,168.520218 258.636230,168.114746 
	C257.507019,168.079269 256.749756,168.125275 255.582794,168.097748 
	C249.783203,167.315277 244.393295,166.606308 239.153000,165.596710 
	C241.534729,165.195618 243.766861,165.095139 246.399200,164.996216 
	C247.866699,164.997910 248.933960,164.998047 250.334320,164.998444 
	C251.111572,164.998718 251.555710,164.998749 252.403473,165.085220 
	C258.676208,165.171661 264.545319,165.171661 270.414429,165.171661 
	C270.920563,164.843048 271.426697,164.514435 271.932831,164.185806 
	C265.136017,162.465683 267.636505,159.587952 269.456085,156.827423 
	C272.093719,152.825836 274.492920,148.627533 277.488098,144.911484 
	C280.967194,140.595062 285.076752,136.791977 288.696381,132.580154 
	C289.637848,131.484650 289.738037,129.683212 290.288147,128.230042 
	C290.995575,126.361259 291.456421,124.300613 292.568573,122.701790 
	C296.063354,117.677811 300.324432,113.117027 303.286591,107.816788 
	C305.291748,104.228981 306.326782,100.834328 312.294098,103.925270 
	C310.504669,98.189369 310.648956,93.767822 315.274506,90.729797 
	C315.708679,90.444618 315.732483,89.523178 315.930847,88.892128 
	C317.958252,82.441681 319.633636,81.360748 326.042206,82.338120 
	C327.229584,80.930824 328.586151,79.653824 329.502716,78.114799 
	C330.068787,77.164307 330.525299,75.129364 330.069672,74.756721 
	C327.316833,72.505432 328.593872,70.582756 330.418243,68.953209 
	C332.614136,66.991821 335.116028,65.373039 337.505402,63.591053 
	C334.204376,61.722515 334.957184,59.835445 338.283752,57.960800 
	C339.219025,57.433731 339.919800,56.384506 340.560608,55.458786 
	C343.726990,50.884499 346.848511,46.278915 349.958801,41.666122 
	C350.678802,40.598293 351.217743,39.404930 351.968872,38.362160 
	C354.951538,34.221474 357.985199,30.117537 361.000000,25.999992 
	C361.000000,28.041666 361.000000,30.083334 360.768860,32.640907 
	C360.691833,33.771210 360.845917,34.385605 361.000000,35.000000 
	C361.000000,47.020893 361.000000,59.041790 360.662384,71.615250 
	C358.944580,73.541565 356.527008,74.801193 356.361145,76.308563 
	C355.582825,83.382713 349.062225,86.435349 345.922638,91.906570 
	C340.584808,101.208588 333.264984,109.359390 326.973816,118.134315 
	C323.988403,122.298416 321.453125,126.785385 318.716431,131.127655 
	C316.780243,134.199799 315.345398,137.780930 312.824219,140.256378 
	C304.144775,148.778442 297.305511,158.251328 294.471741,170.284058 
	C291.243500,168.751801 288.750580,168.873947 286.753021,172.104141 
	C286.687286,173.138275 286.900848,174.067062 287.330231,175.170776 
	C288.082123,176.086746 288.618195,176.827789 288.941071,177.859268 
	C285.083679,181.651001 281.424347,185.136826 277.810852,188.669540 
	C277.236908,189.230667 276.564117,189.956604 276.453613,190.684753 
	C275.309753,198.222031 269.174194,202.934692 265.739166,209.175323 
	C261.304535,217.232056 254.017624,223.685745 249.292267,231.623489 
	C242.611603,242.845779 233.391891,252.469101 228.507233,264.798035 
	C228.235962,265.482788 227.412048,266.017487 226.739670,266.462280 
	C224.127808,268.190186 221.473206,269.853577 218.983658,271.445587 
	C220.669083,277.369507 216.176987,280.774994 213.806793,284.587311 
	C209.158905,292.063263 203.279053,298.761383 198.374191,306.092590 
	C193.034561,314.073669 188.270966,322.438232 183.154831,330.571777 
	C181.397156,333.366089 179.844742,336.659027 177.315170,338.529388 
	C169.504211,344.304871 167.303726,353.667847 162.000000,361.000000 
M302.113678,121.112206 
	C303.285858,119.888908 304.458069,118.665611 305.973724,117.083862 
	C301.164734,116.485359 300.485840,117.309044 302.113678,121.112206 
M295.320618,127.709976 
	C295.875854,128.233475 296.431061,128.756973 296.986267,129.280487 
	C297.207428,128.736084 297.428558,128.191666 297.649719,127.647255 
	C296.941711,127.485458 296.233704,127.323662 295.320618,127.709976 
z"/>
<path fill="#FC7F22" opacity="1.000000" stroke="none" 
	d="
M0.999998,318.468658 
	C5.031738,314.506836 9.071097,311.022339 13.085384,307.509247 
	C13.573917,307.081696 14.048553,306.558044 14.324854,305.980927 
	C16.642385,301.139679 18.768667,296.200287 21.261023,291.452362 
	C22.385986,289.309357 24.241825,287.556793 25.712820,285.587280 
	C29.422390,280.620575 33.135380,275.655457 36.754707,270.623291 
	C37.261303,269.918976 37.314274,268.851501 37.456997,267.933441 
	C37.581486,267.132721 37.212635,266.060547 37.615906,265.527802 
	C41.914211,259.849365 46.409172,254.318970 50.675049,248.616959 
	C54.268467,243.813843 57.647717,238.849625 61.078747,233.926727 
	C61.633530,233.130692 61.730450,231.774918 62.437294,231.365540 
	C66.306633,229.124588 69.219643,226.548859 67.472527,221.485260 
	C67.392311,221.252762 67.628586,220.827667 67.832909,220.592667 
	C72.161789,215.614410 76.505402,210.648926 80.854935,205.688675 
	C81.070305,205.443069 81.482422,205.320648 81.605385,205.050842 
	C83.138786,201.686447 84.284866,198.448502 87.723137,195.925430 
	C90.489685,193.895264 91.579620,189.580353 93.466728,186.183289 
	C91.920784,185.202591 90.588585,184.357483 89.380829,183.087250 
	C89.671394,182.581818 89.837517,182.501495 90.383095,182.564957 
	C91.839020,182.749619 92.915489,182.790497 94.359741,182.932648 
	C95.485321,183.020142 96.243118,183.006348 97.398590,183.118103 
	C102.859268,183.727158 107.922272,184.210678 113.351967,184.803650 
	C114.480789,184.903015 115.242928,184.892929 116.403824,184.988037 
	C120.651558,185.454361 124.500526,185.815521 128.605209,186.412933 
	C129.915237,187.073608 130.969543,187.498032 132.214447,188.143127 
	C132.919144,188.621460 133.433258,188.879120 134.062897,189.403015 
	C134.769287,190.153748 135.360153,190.638229 136.046509,191.405762 
	C136.754944,192.462051 137.367905,193.235260 138.007263,194.341766 
	C138.568222,196.113785 139.102798,197.552505 139.633286,199.397522 
	C139.122833,202.877182 138.616455,205.950562 137.844772,209.231430 
	C132.880951,215.031464 128.182449,220.624023 123.377045,226.253204 
	C123.270157,226.289841 123.231499,226.512512 122.995148,226.714142 
	C121.153534,228.933289 119.548264,230.950821 117.649712,233.102478 
	C116.576530,234.251877 115.796638,235.267136 114.736061,236.436798 
	C105.782173,246.566788 97.043190,256.486908 88.524666,266.592896 
	C87.535576,267.766327 87.768456,269.969818 87.434799,271.695740 
	C89.170441,271.319611 91.217628,271.400024 92.576973,270.472443 
	C95.417580,268.534027 97.895241,266.063751 100.764023,264.055573 
	C100.616241,265.922394 100.659286,267.857697 99.755821,269.110443 
	C96.992455,272.942108 93.662918,276.367279 90.923073,280.213776 
	C85.727005,287.508545 80.835136,295.019165 75.727303,302.377899 
	C71.456902,308.530182 66.932945,314.509247 62.756603,320.723145 
	C59.383686,325.741638 56.594494,331.160126 53.114407,336.096649 
	C50.024658,340.479492 45.982334,344.206146 43.029148,348.665283 
	C40.523582,352.448486 38.973091,356.864166 37.000000,361.000000 
	C25.066851,361.000000 13.133701,361.000000 1.000000,361.000000 
	C1.000000,346.979736 1.000000,332.958527 0.999998,318.468658 
z"/>
<path fill="#FD8D1E" opacity="1.000000" stroke="none" 
	d="
M169.531342,1.000000 
	C168.381744,2.928328 166.829422,4.917285 165.127014,6.768213 
	C163.366531,8.682276 160.580490,10.137198 159.761353,12.353997 
	C154.641373,26.209980 144.731155,37.101120 137.169159,49.421112 
	C133.679520,55.106430 128.208405,59.554111 124.510712,65.141960 
	C122.601707,68.026810 117.452530,70.653282 121.313881,75.001389 
	C113.997749,81.387459 108.175247,87.996628 104.187347,96.683342 
	C101.452133,102.641350 95.977928,107.319443 91.874123,112.681435 
	C89.902962,115.256927 88.631241,118.442307 86.405861,120.732658 
	C82.182632,125.079185 79.329269,129.856461 78.781921,135.994904 
	C78.704567,136.862427 77.238022,137.622559 76.386337,138.401642 
	C72.978279,141.519226 69.132935,144.217911 68.396675,149.410370 
	C68.190552,150.864044 66.624741,152.142380 65.632088,153.463135 
	C64.005516,155.627350 62.780476,158.632309 60.601913,159.739044 
	C54.669945,162.752533 52.857376,168.624481 49.649521,173.553406 
	C48.424519,175.435654 47.198292,177.319382 46.056393,179.251938 
	C45.732727,179.799713 45.866547,180.632217 45.516125,181.147552 
	C41.322262,187.315094 36.947166,193.362961 32.872814,199.607452 
	C25.487820,210.925949 18.437902,222.466400 10.896622,233.677780 
	C8.374399,237.427475 4.779727,240.455765 1.337645,243.906906 
	C1.000000,222.979111 1.000000,201.958206 1.359354,180.439148 
	C5.439761,175.466080 9.589914,171.275146 12.782816,166.450714 
	C17.760269,158.929871 21.821600,150.803223 26.789461,143.275345 
	C29.858469,138.624832 34.029385,134.716248 37.432182,130.265533 
	C39.341885,127.767723 40.705021,124.850151 42.295898,122.110954 
	C44.126003,118.959839 45.655033,115.588631 47.811844,112.681793 
	C52.495667,106.369194 57.525436,100.314362 62.353893,94.107567 
	C64.835922,90.917015 67.231636,87.656555 69.576866,84.363937 
	C70.343384,83.287773 70.832077,82.012772 71.439438,80.824417 
	C72.255180,79.228333 72.884636,77.498901 73.923782,76.065788 
	C74.971825,74.620422 76.462166,73.503700 77.690674,72.179832 
	C82.310753,67.201118 82.773918,59.026299 90.164284,56.076744 
	C91.061226,55.718765 91.293976,53.813549 91.937935,52.684376 
	C94.657051,47.916443 97.360786,43.137997 100.192581,38.437141 
	C101.039215,37.031700 103.234383,35.824757 103.181046,34.597759 
	C102.955406,29.407249 107.073105,27.954523 110.255959,26.060074 
	C113.354683,24.215702 114.611542,21.945692 113.807404,18.690014 
	C112.994385,15.398385 114.865944,14.168080 117.060135,12.294775 
	C121.028534,8.906743 124.386909,4.804203 128.000000,1.000000 
	C141.687561,1.000000 155.375122,1.000000 169.531342,1.000000 
z"/>
<path fill="#FC7624" opacity="1.000000" stroke="none" 
	d="
M37.468658,361.000000 
	C38.973091,356.864166 40.523582,352.448486 43.029148,348.665283 
	C45.982334,344.206146 50.024658,340.479492 53.114407,336.096649 
	C56.594494,331.160126 59.383686,325.741638 62.756603,320.723145 
	C66.932945,314.509247 71.456902,308.530182 75.727303,302.377899 
	C80.835136,295.019165 85.727005,287.508545 90.923073,280.213776 
	C93.662918,276.367279 96.992455,272.942108 99.755821,269.110443 
	C100.659286,267.857697 100.616241,265.922394 100.940857,263.757019 
	C107.385796,257.123993 113.895927,251.033218 120.725739,244.800064 
	C122.024086,243.669800 123.002762,242.681900 124.267883,241.552567 
	C127.084633,239.047363 129.614929,236.683624 132.429077,234.188065 
	C133.134918,233.601074 133.556915,233.145905 134.224335,232.592712 
	C135.077789,231.862946 135.685822,231.231216 136.560074,230.459930 
	C137.217804,229.880081 137.609299,229.439789 138.249771,228.929398 
	C138.686172,228.580338 138.873596,228.301392 139.287750,227.960876 
	C139.816895,227.545639 140.119308,227.191940 140.707123,226.665176 
	C141.758072,225.700211 142.523621,224.908325 143.491333,224.064026 
	C143.958115,223.867294 144.113892,223.646286 144.464081,223.210220 
	C146.247910,221.751556 147.728470,220.431229 149.547913,219.053864 
	C151.590134,218.314911 153.293457,217.632980 155.412903,216.992981 
	C157.220215,216.999054 158.611420,216.963196 160.335617,217.062958 
	C163.551941,218.792770 166.435242,220.386963 169.450867,222.259064 
	C170.554871,224.096695 171.526550,225.656403 172.580750,227.567444 
	C172.842743,228.616852 173.022217,229.314926 173.163971,230.257538 
	C173.126251,230.502075 173.321838,230.956635 173.317841,231.312347 
	C173.485931,232.104980 173.658051,232.541870 173.747711,233.262238 
	C173.629120,233.936508 173.592972,234.327286 173.274948,235.037064 
	C172.731979,237.447144 171.825424,239.714981 172.339844,241.593719 
	C173.528793,245.935959 171.904099,249.298935 169.964569,252.897263 
	C167.444290,257.572968 165.255386,262.309967 160.063599,264.863190 
	C158.927765,265.421783 158.563232,267.619904 157.920715,269.096558 
	C156.334381,272.742218 156.783981,278.099487 150.377335,277.639526 
	C149.691742,277.590271 148.698807,279.057343 148.174408,280.001953 
	C145.805542,284.268982 143.718658,288.700897 141.192902,292.869019 
	C139.866455,295.058014 136.805328,296.602356 136.327194,298.824982 
	C134.685638,306.455933 128.894775,311.272552 124.754890,317.126587 
	C119.028343,325.224335 116.114563,335.364563 107.387192,341.341888 
	C106.601189,341.880249 106.555283,343.429779 106.039368,344.445557 
	C104.724907,347.033600 103.464394,349.662292 101.949570,352.131958 
	C100.089943,355.163757 97.993866,358.050537 96.000000,361.000000 
	C76.645775,361.000000 57.291546,361.000000 37.468658,361.000000 
z"/>
<path fill="#FD931C" opacity="1.000000" stroke="none" 
	d="
M127.531342,1.000000 
	C124.386909,4.804203 121.028534,8.906743 117.060135,12.294775 
	C114.865944,14.168080 112.994385,15.398385 113.807404,18.690014 
	C114.611542,21.945692 113.354683,24.215702 110.255959,26.060074 
	C107.073105,27.954523 102.955406,29.407249 103.181046,34.597759 
	C103.234383,35.824757 101.039215,37.031700 100.192581,38.437141 
	C97.360786,43.137997 94.657051,47.916443 91.937935,52.684376 
	C91.293976,53.813549 91.061226,55.718765 90.164284,56.076744 
	C82.773918,59.026299 82.310753,67.201118 77.690674,72.179832 
	C76.462166,73.503700 74.971825,74.620422 73.923782,76.065788 
	C72.884636,77.498901 72.255180,79.228333 71.439438,80.824417 
	C70.832077,82.012772 70.343384,83.287773 69.576866,84.363937 
	C67.231636,87.656555 64.835922,90.917015 62.353893,94.107567 
	C57.525436,100.314362 52.495667,106.369194 47.811844,112.681793 
	C45.655033,115.588631 44.126003,118.959839 42.295898,122.110954 
	C40.705021,124.850151 39.341885,127.767723 37.432182,130.265533 
	C34.029385,134.716248 29.858469,138.624832 26.789461,143.275345 
	C21.821600,150.803223 17.760269,158.929871 12.782816,166.450714 
	C9.589914,171.275146 5.439761,175.466080 1.359354,179.970490 
	C1.000000,158.645767 1.000000,137.291550 1.360128,115.386566 
	C2.788755,113.720261 4.365952,112.787323 4.842713,111.459328 
	C7.805197,103.207375 12.032480,95.817520 18.507244,89.805191 
	C19.339077,89.032761 20.201218,88.232109 20.810377,87.290039 
	C27.749432,76.558655 34.635250,65.792854 41.567162,55.056824 
	C41.912655,54.521729 42.596626,54.217987 43.044117,53.733643 
	C44.658817,51.985962 46.301350,50.258347 47.822468,48.430847 
	C53.536888,41.565464 54.287872,31.709282 61.700893,25.734148 
	C63.504150,24.280664 63.895267,21.153023 65.149757,18.915165 
	C66.077133,17.260832 67.171021,15.619663 68.506340,14.289457 
	C72.269783,10.540428 76.546364,7.153800 76.000000,1.000000 
	C93.020897,1.000000 110.041786,1.000000 127.531342,1.000000 
z"/>
<path fill="#FB6729" opacity="1.000000" stroke="none" 
	d="
M294.810516,170.401276 
	C297.305511,158.251328 304.144775,148.778442 312.824219,140.256378 
	C315.345398,137.780930 316.780243,134.199799 318.716431,131.127655 
	C321.453125,126.785385 323.988403,122.298416 326.973816,118.134315 
	C333.264984,109.359390 340.584808,101.208588 345.922638,91.906570 
	C349.062225,86.435349 355.582825,83.382713 356.361145,76.308563 
	C356.527008,74.801193 358.944580,73.541565 360.662384,72.083908 
	C361.000000,83.354225 361.000000,94.708458 360.641785,106.605301 
	C357.957611,108.816437 353.618561,110.527016 353.652405,112.146225 
	C353.802948,119.353096 348.534210,123.956337 346.204468,129.872345 
	C344.862976,133.278793 341.398376,135.852142 338.877075,138.789871 
	C337.346252,140.573517 335.182373,142.097168 334.371735,144.158035 
	C332.542480,148.808563 331.319122,153.612259 325.734192,155.382339 
	C324.959045,155.628006 324.534851,157.150375 324.057922,158.134872 
	C322.721069,160.894257 321.631592,163.792053 320.095032,166.431824 
	C317.783142,170.403580 312.975494,172.803528 312.914795,178.278091 
	C312.903534,179.295868 311.295135,180.244019 310.560638,181.317871 
	C309.460022,182.926865 307.898224,184.512527 307.572815,186.297745 
	C306.930298,189.821976 305.694580,192.022415 301.767822,192.533234 
	C300.572601,192.688721 299.472321,194.638535 298.590057,195.943375 
	C295.469910,200.557861 292.779083,205.502274 289.310913,209.828979 
	C286.645935,213.153641 283.165405,215.869797 279.840668,218.605103 
	C277.453430,220.569168 276.207977,222.544678 276.871887,225.830185 
	C277.437744,228.630188 276.828735,230.819366 273.722504,232.807648 
	C271.038239,234.525848 269.740784,238.419540 267.848969,241.363525 
	C266.722565,243.116409 265.793243,246.262817 264.497040,246.415161 
	C259.518219,247.000351 259.596039,250.616837 259.744202,253.719666 
	C259.961426,258.269531 257.652618,260.669434 253.946335,261.923615 
	C250.191391,263.194305 248.709274,265.844452 247.270187,269.273621 
	C244.897797,274.926666 246.381210,282.777985 238.331558,285.498962 
	C237.221725,285.874084 236.788437,288.307220 236.081116,289.806061 
	C233.962021,294.296539 232.266647,299.029755 226.759674,300.815125 
	C225.748016,301.143127 225.379791,303.368866 224.654587,304.685638 
	C223.200638,307.325592 222.165909,311.724792 220.143799,312.247498 
	C213.016830,314.089752 211.393616,320.509277 209.705154,325.369110 
	C208.153046,329.836456 206.111633,332.832275 202.682571,335.473755 
	C201.792694,336.159241 200.937088,336.945282 200.252304,337.829559 
	C198.699402,339.834869 197.262543,341.930023 195.217743,344.766541 
	C197.396423,347.799774 195.062805,350.382690 191.192734,352.748505 
	C188.265808,354.537750 185.102936,356.588196 187.000000,361.000000 
	C178.979095,361.000000 170.958191,361.000000 162.468643,361.000000 
	C167.303726,353.667847 169.504211,344.304871 177.315170,338.529388 
	C179.844742,336.659027 181.397156,333.366089 183.154831,330.571777 
	C188.270966,322.438232 193.034561,314.073669 198.374191,306.092590 
	C203.279053,298.761383 209.158905,292.063263 213.806793,284.587311 
	C216.176987,280.774994 220.669083,277.369507 218.983658,271.445587 
	C221.473206,269.853577 224.127808,268.190186 226.739670,266.462280 
	C227.412048,266.017487 228.235962,265.482788 228.507233,264.798035 
	C233.391891,252.469101 242.611603,242.845779 249.292267,231.623489 
	C254.017624,223.685745 261.304535,217.232056 265.739166,209.175323 
	C269.174194,202.934692 275.309753,198.222031 276.453613,190.684753 
	C276.564117,189.956604 277.236908,189.230667 277.810852,188.669540 
	C281.424347,185.136826 285.083679,181.651001 289.322998,177.967148 
	C295.762756,177.780426 296.997528,175.916977 294.810516,170.401276 
z"/>
<path fill="#FA5A2C" opacity="1.000000" stroke="none" 
	d="
M297.000000,361.000000 
	C281.312439,361.000000 265.624878,361.000000 249.468658,360.566803 
	C247.569046,350.098785 256.571228,344.962677 260.446930,337.571533 
	C263.899933,330.986389 270.125885,325.377014 274.516602,318.848236 
	C276.148865,316.421112 277.932343,314.096130 279.590240,311.685669 
	C281.525330,308.872101 283.180847,305.833221 285.363373,303.232605 
	C287.318054,300.903503 289.645416,299.050415 288.475189,295.453094 
	C288.204407,294.620728 288.722961,293.087402 289.410675,292.462372 
	C292.859772,289.327698 296.532318,286.440094 300.019196,283.344910 
	C300.981201,282.490967 301.820557,281.320129 302.296082,280.127228 
	C304.645905,274.232605 307.768219,268.911835 312.598083,264.656677 
	C313.539124,263.827606 314.003815,262.446259 314.653534,261.300018 
	C318.448395,254.605164 318.335205,245.256882 327.612701,242.254105 
	C328.101685,242.095871 328.530914,241.268448 328.696808,240.671631 
	C330.318146,234.838593 333.455414,230.371307 339.255981,227.929031 
	C340.507599,227.402039 341.809967,226.003891 342.246246,224.720535 
	C343.484589,221.077850 344.267487,217.281647 345.280212,213.559616 
	C345.447601,212.944443 345.820496,212.365860 346.181305,211.825729 
	C348.714844,208.033142 351.002319,204.030914 353.914215,200.552582 
	C355.798431,198.301819 358.606110,196.824112 361.000000,195.000000 
	C361.000000,218.354233 361.000000,241.708450 360.678589,265.652649 
	C356.928009,270.819305 353.280396,275.250488 350.115204,280.002960 
	C343.563385,289.840515 337.245911,299.834778 330.886597,309.799377 
	C329.646454,311.742554 329.163849,314.763916 327.457123,315.710083 
	C320.636108,319.491455 319.031525,326.759369 315.171234,332.512329 
	C312.074432,337.127533 308.568542,341.466461 305.392456,346.031128 
	C304.003967,348.026733 303.500397,351.084106 301.688843,352.243713 
	C298.238647,354.452240 297.370728,357.451569 297.000000,361.000000 
z"/>
<path fill="#FB642A" opacity="1.000000" stroke="none" 
	d="
M187.468658,361.000000 
	C185.102936,356.588196 188.265808,354.537750 191.192734,352.748505 
	C195.062805,350.382690 197.396423,347.799774 195.217743,344.766541 
	C197.262543,341.930023 198.699402,339.834869 200.252304,337.829559 
	C200.937088,336.945282 201.792694,336.159241 202.682571,335.473755 
	C206.111633,332.832275 208.153046,329.836456 209.705154,325.369110 
	C211.393616,320.509277 213.016830,314.089752 220.143799,312.247498 
	C222.165909,311.724792 223.200638,307.325592 224.654587,304.685638 
	C225.379791,303.368866 225.748016,301.143127 226.759674,300.815125 
	C232.266647,299.029755 233.962021,294.296539 236.081116,289.806061 
	C236.788437,288.307220 237.221725,285.874084 238.331558,285.498962 
	C246.381210,282.777985 244.897797,274.926666 247.270187,269.273621 
	C248.709274,265.844452 250.191391,263.194305 253.946335,261.923615 
	C257.652618,260.669434 259.961426,258.269531 259.744202,253.719666 
	C259.596039,250.616837 259.518219,247.000351 264.497040,246.415161 
	C265.793243,246.262817 266.722565,243.116409 267.848969,241.363525 
	C269.740784,238.419540 271.038239,234.525848 273.722504,232.807648 
	C276.828735,230.819366 277.437744,228.630188 276.871887,225.830185 
	C276.207977,222.544678 277.453430,220.569168 279.840668,218.605103 
	C283.165405,215.869797 286.645935,213.153641 289.310913,209.828979 
	C292.779083,205.502274 295.469910,200.557861 298.590057,195.943375 
	C299.472321,194.638535 300.572601,192.688721 301.767822,192.533234 
	C305.694580,192.022415 306.930298,189.821976 307.572815,186.297745 
	C307.898224,184.512527 309.460022,182.926865 310.560638,181.317871 
	C311.295135,180.244019 312.903534,179.295868 312.914795,178.278091 
	C312.975494,172.803528 317.783142,170.403580 320.095032,166.431824 
	C321.631592,163.792053 322.721069,160.894257 324.057922,158.134872 
	C324.534851,157.150375 324.959045,155.628006 325.734192,155.382339 
	C331.319122,153.612259 332.542480,148.808563 334.371735,144.158035 
	C335.182373,142.097168 337.346252,140.573517 338.877075,138.789871 
	C341.398376,135.852142 344.862976,133.278793 346.204468,129.872345 
	C348.534210,123.956337 353.802948,119.353096 353.652405,112.146225 
	C353.618561,110.527016 357.957611,108.816437 360.641785,107.073959 
	C361.000000,121.020897 361.000000,135.041794 360.654663,149.604065 
	C357.408630,152.737762 354.061676,154.982086 351.707764,158.000809 
	C347.788422,163.027069 344.509735,168.552460 340.952850,173.862045 
	C339.413818,176.159393 337.866577,178.451462 336.301025,180.730789 
	C332.136871,186.793640 327.687012,192.682159 323.877258,198.959518 
	C320.908264,203.851501 319.108368,209.510208 313.230377,212.002884 
	C312.540985,212.295242 311.506622,213.283401 311.610687,213.710495 
	C313.072784,219.709305 307.096588,222.051620 305.312897,226.487656 
	C303.755188,230.361710 301.056732,234.041031 298.072723,237.013824 
	C293.935699,241.135300 293.520172,248.049118 287.506592,250.615875 
	C287.294098,250.706589 287.305511,251.239182 287.131317,251.514374 
	C283.167908,257.776031 278.980499,263.907562 275.274017,270.317261 
	C270.568512,278.454559 262.388367,284.079681 259.164734,293.315155 
	C257.998840,296.655365 256.173615,300.027222 253.819992,302.636688 
	C248.903717,308.087372 242.997284,312.509644 240.304031,319.912079 
	C238.627075,324.521240 235.410217,328.593628 232.722931,332.803833 
	C230.779068,335.849304 228.987640,339.175018 226.393845,341.585510 
	C220.587708,346.981323 217.126236,353.549072 215.000000,361.000000 
	C205.979111,361.000000 196.958206,361.000000 187.468658,361.000000 
z"/>
<path fill="#FB602A" opacity="1.000000" stroke="none" 
	d="
M215.468658,361.000000 
	C217.126236,353.549072 220.587708,346.981323 226.393845,341.585510 
	C228.987640,339.175018 230.779068,335.849304 232.722931,332.803833 
	C235.410217,328.593628 238.627075,324.521240 240.304031,319.912079 
	C242.997284,312.509644 248.903717,308.087372 253.819992,302.636688 
	C256.173615,300.027222 257.998840,296.655365 259.164734,293.315155 
	C262.388367,284.079681 270.568512,278.454559 275.274017,270.317261 
	C278.980499,263.907562 283.167908,257.776031 287.131317,251.514374 
	C287.305511,251.239182 287.294098,250.706589 287.506592,250.615875 
	C293.520172,248.049118 293.935699,241.135300 298.072723,237.013824 
	C301.056732,234.041031 303.755188,230.361710 305.312897,226.487656 
	C307.096588,222.051620 313.072784,219.709305 311.610687,213.710495 
	C311.506622,213.283401 312.540985,212.295242 313.230377,212.002884 
	C319.108368,209.510208 320.908264,203.851501 323.877258,198.959518 
	C327.687012,192.682159 332.136871,186.793640 336.301025,180.730789 
	C337.866577,178.451462 339.413818,176.159393 340.952850,173.862045 
	C344.509735,168.552460 347.788422,163.027069 351.707764,158.000809 
	C354.061676,154.982086 357.408630,152.737762 360.654663,150.072723 
	C361.000000,164.687561 361.000000,179.375122 361.000000,194.531342 
	C358.606110,196.824112 355.798431,198.301819 353.914215,200.552582 
	C351.002319,204.030914 348.714844,208.033142 346.181305,211.825729 
	C345.820496,212.365860 345.447601,212.944443 345.280212,213.559616 
	C344.267487,217.281647 343.484589,221.077850 342.246246,224.720535 
	C341.809967,226.003891 340.507599,227.402039 339.255981,227.929031 
	C333.455414,230.371307 330.318146,234.838593 328.696808,240.671631 
	C328.530914,241.268448 328.101685,242.095871 327.612701,242.254105 
	C318.335205,245.256882 318.448395,254.605164 314.653534,261.300018 
	C314.003815,262.446259 313.539124,263.827606 312.598083,264.656677 
	C307.768219,268.911835 304.645905,274.232605 302.296082,280.127228 
	C301.820557,281.320129 300.981201,282.490967 300.019196,283.344910 
	C296.532318,286.440094 292.859772,289.327698 289.410675,292.462372 
	C288.722961,293.087402 288.204407,294.620728 288.475189,295.453094 
	C289.645416,299.050415 287.318054,300.903503 285.363373,303.232605 
	C283.180847,305.833221 281.525330,308.872101 279.590240,311.685669 
	C277.932343,314.096130 276.148865,316.421112 274.516602,318.848236 
	C270.125885,325.377014 263.899933,330.986389 260.446930,337.571533 
	C256.571228,344.962677 247.569046,350.098785 249.000000,360.566803 
	C237.979111,361.000000 226.958206,361.000000 215.468658,361.000000 
z"/>
<path fill="#FC7226" opacity="1.000000" stroke="none" 
	d="
M245.998978,164.994659 
	C243.766861,165.095139 241.534729,165.195618 238.739166,165.658096 
	C236.781418,166.020813 235.387131,166.021515 233.799789,165.736511 
	C232.400146,165.057510 231.193542,164.664200 229.707657,164.079193 
	C227.586472,162.266617 225.744583,160.645721 223.863098,158.764938 
	C223.570465,158.276062 223.317444,158.047073 223.064087,157.861145 
	C223.063736,157.904205 223.149841,157.902237 223.092804,157.536652 
	C222.397461,155.096619 221.759155,153.022186 221.202881,150.579895 
	C221.501068,148.469376 221.717224,146.726700 222.137299,144.734161 
	C222.913925,143.334885 223.486633,142.185471 224.029205,141.028000 
	C223.999084,141.019943 224.029495,141.074432 224.253906,140.964508 
	C224.753159,140.623352 224.886383,140.328217 224.918915,139.961273 
	C224.959854,139.953369 224.942719,139.871750 225.197693,139.734726 
	C226.174149,138.721069 226.895630,137.844437 227.738586,136.883667 
	C227.860046,136.799530 227.896820,136.506287 228.136169,136.325027 
	C229.817520,134.421432 231.259537,132.699097 232.948883,130.828705 
	C233.506439,130.208450 233.816666,129.736252 234.419495,129.095032 
	C236.004074,127.352486 237.296021,125.778969 238.849182,124.026230 
	C248.679291,113.120064 258.402100,102.523338 267.683441,91.553123 
	C269.476501,89.433784 273.147125,87.099037 271.166992,83.039352 
	C273.745819,81.239922 276.598999,79.892136 278.014801,77.640533 
	C282.097168,71.148239 285.377014,64.154076 289.403168,57.622791 
	C292.431549,52.710140 298.665131,49.972965 299.179291,43.235588 
	C299.235931,42.493793 300.570923,41.895847 301.209839,41.143539 
	C303.128387,38.884369 305.181122,36.708603 306.848022,34.272125 
	C311.631378,27.280453 316.234680,20.165821 320.952484,13.128857 
	C321.588776,12.179755 322.312317,11.035101 323.274841,10.602194 
	C327.766724,8.581869 327.931671,5.038707 327.000000,1.000000 
	C337.500000,1.000000 348.000153,0.977336 358.499725,1.043244 
	C359.335144,1.048488 360.166656,1.666672 360.600525,2.509591 
	C355.579590,3.147485 353.320587,5.011787 352.462921,10.079325 
	C351.825043,13.848199 344.120514,11.933286 343.955841,17.692936 
	C343.932465,18.509895 343.689545,19.336721 343.447906,20.128351 
	C342.629181,22.810881 342.549133,26.930023 340.775482,27.888540 
	C334.862976,31.083731 333.225281,37.312634 329.373474,41.884266 
	C327.994446,43.520985 327.537140,46.016075 326.922455,48.193722 
	C326.202332,50.744923 326.989166,54.077576 322.869659,54.509781 
	C320.585968,54.749378 311.805817,63.156212 311.355255,65.302971 
	C311.288666,65.620270 311.306213,65.968254 311.349091,66.293564 
	C311.910950,70.557442 309.350220,72.412239 305.977722,74.206680 
	C304.621552,74.928284 303.918335,77.359055 303.484711,79.149208 
	C303.229919,80.201294 304.089142,81.523216 304.635986,83.356354 
	C297.169800,83.318199 296.231689,88.278427 294.648865,93.695198 
	C293.475952,97.709129 289.918701,101.027176 287.410461,104.646133 
	C287.333191,104.757614 287.100342,104.750076 286.956268,104.828064 
	C280.796112,108.163193 277.054291,112.981514 276.732910,120.300346 
	C276.677307,121.566948 274.791351,122.841827 273.598480,123.948715 
	C271.883148,125.540428 268.709015,126.811790 268.489075,128.520035 
	C267.913544,132.990952 267.720093,137.058578 262.475616,138.640366 
	C261.829010,138.835403 261.123871,140.310104 261.187897,141.134186 
	C261.475220,144.832855 259.466888,147.130463 256.648254,148.800110 
	C253.006058,150.957657 248.980118,152.586792 250.455734,158.215134 
	C250.671600,159.038422 249.061432,160.324875 248.326248,161.417267 
	C247.532074,162.597336 246.773239,163.801193 245.998978,164.994659 
z"/>
<path fill="#FC7924" opacity="1.000000" stroke="none" 
	d="
M270.000000,1.000000 
	C281.687561,1.000000 293.375122,1.000000 305.503540,1.359643 
	C304.148743,4.444059 302.243195,7.103696 300.581696,9.907957 
	C297.647766,14.859821 294.504974,19.684525 291.763367,24.769463 
	C288.401489,31.004801 282.316193,35.549652 279.146820,42.739346 
	C275.903137,50.097572 269.651672,56.134098 264.692169,62.730663 
	C258.477356,70.996887 250.576248,78.217621 248.554092,89.077858 
	C248.394073,89.937195 247.492004,90.727066 246.795746,91.406761 
	C242.035583,96.053658 242.041672,96.601868 246.963730,100.531631 
	C246.285904,100.879799 245.738983,100.975555 244.807648,101.051453 
	C242.778671,100.929703 241.134125,100.827812 239.489563,100.725914 
	C238.808731,101.632370 238.127899,102.538834 237.447083,103.445290 
	C238.948669,103.958717 240.450256,104.472145 241.779602,105.268936 
	C233.271103,113.170303 224.808716,120.656418 216.648788,128.458817 
	C212.194687,132.717758 207.260132,135.161148 200.788162,134.760818 
	C193.771255,132.893127 189.715942,128.526840 187.833237,121.586456 
	C187.584045,118.452721 187.307648,115.726860 187.396866,113.011841 
	C189.694916,114.056099 191.627365,115.089493 193.091797,115.872612 
	C196.787842,111.708046 200.461609,107.598717 204.084351,103.444870 
	C204.493713,102.975494 204.766159,102.274841 204.847626,101.648346 
	C205.885544,93.667702 210.777969,88.390732 216.990433,83.938240 
	C218.431961,82.905090 219.906128,81.557854 220.676178,80.011894 
	C223.478485,74.386047 225.963760,68.603043 228.627243,62.906723 
	C229.255554,61.562992 229.922897,60.156052 230.896896,59.069035 
	C236.032578,53.337349 241.314911,47.736889 246.437317,41.993629 
	C247.388519,40.927132 248.551453,39.329624 248.405396,38.123901 
	C247.599823,31.473335 252.891998,28.686003 256.452118,24.849005 
	C259.664764,21.386524 264.988892,19.331154 263.493317,12.959714 
	C263.295715,12.117887 264.600769,10.434421 265.613586,9.885193 
	C269.270660,7.902036 269.874176,4.614796 270.000000,1.000000 
z"/>
<path fill="#FD9B1A" opacity="1.000000" stroke="none" 
	d="
M75.531342,1.000000 
	C76.546364,7.153800 72.269783,10.540428 68.506340,14.289457 
	C67.171021,15.619663 66.077133,17.260832 65.149757,18.915165 
	C63.895267,21.153023 63.504150,24.280664 61.700893,25.734148 
	C54.287872,31.709282 53.536888,41.565464 47.822468,48.430847 
	C46.301350,50.258347 44.658817,51.985962 43.044117,53.733643 
	C42.596626,54.217987 41.912655,54.521729 41.567162,55.056824 
	C34.635250,65.792854 27.749432,76.558655 20.810377,87.290039 
	C20.201218,88.232109 19.339077,89.032761 18.507244,89.805191 
	C12.032480,95.817520 7.805197,103.207375 4.842713,111.459328 
	C4.365952,112.787323 2.788755,113.720261 1.360128,114.917908 
	C1.000000,77.088158 1.000000,39.176319 1.000000,1.000000 
	C25.686932,1.000000 50.374805,1.000000 75.531342,1.000000 
z"/>
<path fill="#FC7E22" opacity="1.000000" stroke="none" 
	d="
M269.531342,1.000000 
	C269.874176,4.614796 269.270660,7.902036 265.613586,9.885193 
	C264.600769,10.434421 263.295715,12.117887 263.493317,12.959714 
	C264.988892,19.331154 259.664764,21.386524 256.452118,24.849005 
	C252.891998,28.686003 247.599823,31.473335 248.405396,38.123901 
	C248.551453,39.329624 247.388519,40.927132 246.437317,41.993629 
	C241.314911,47.736889 236.032578,53.337349 230.896896,59.069035 
	C229.922897,60.156052 229.255554,61.562992 228.627243,62.906723 
	C225.963760,68.603043 223.478485,74.386047 220.676178,80.011894 
	C219.906128,81.557854 218.431961,82.905090 216.990433,83.938240 
	C210.777969,88.390732 205.885544,93.667702 204.847626,101.648346 
	C204.766159,102.274841 204.493713,102.975494 204.084351,103.444870 
	C200.461609,107.598717 196.787842,111.708046 193.091797,115.872612 
	C191.627365,115.089493 189.694916,114.056099 187.250107,112.633339 
	C186.138367,108.830421 185.538986,105.416870 184.990402,101.658112 
	C184.877930,100.171516 184.714630,99.030128 184.547226,97.444839 
	C183.801773,92.322372 183.060440,87.643814 182.353394,82.724693 
	C182.387680,82.484123 182.411743,81.998711 182.541672,81.657135 
	C183.528564,78.329697 183.728439,74.906410 185.368942,72.442169 
	C189.815765,65.762413 194.940872,59.538429 199.673615,53.043804 
	C206.486816,43.694214 213.201385,34.272617 219.927139,24.859663 
	C220.683456,23.801151 221.175980,22.557102 221.900818,21.472601 
	C223.978729,18.363623 226.193436,15.343654 228.204498,12.193028 
	C230.552338,8.514796 232.741806,4.735461 235.000000,0.999998 
	C246.354233,1.000000 257.708466,1.000000 269.531342,1.000000 
M187.525604,107.499245 
	C187.525604,107.499245 187.486984,107.513084 187.525604,107.499245 
z"/>
<path fill="#FC8221" opacity="1.000000" stroke="none" 
	d="
M234.531342,0.999998 
	C232.741806,4.735461 230.552338,8.514796 228.204498,12.193028 
	C226.193436,15.343654 223.978729,18.363623 221.900818,21.472601 
	C221.175980,22.557102 220.683456,23.801151 219.927139,24.859663 
	C213.201385,34.272617 206.486816,43.694214 199.673615,53.043804 
	C194.940872,59.538429 189.815765,65.762413 185.368942,72.442169 
	C183.728439,74.906410 183.528564,78.329697 182.323288,81.370789 
	C177.004028,77.893707 174.042786,79.117836 173.302826,85.062019 
	C173.141037,86.361664 173.231003,87.692657 173.125565,89.426392 
	C172.809723,92.890915 172.573349,95.938248 172.228607,99.394669 
	C171.988037,102.550209 171.855850,105.296677 171.556213,108.410736 
	C171.345764,109.848366 171.302750,110.918396 171.162811,112.381958 
	C171.066940,113.851250 171.067978,114.927017 170.950806,116.391434 
	C170.479797,126.492676 168.092346,134.838272 156.586411,137.302490 
	C154.435120,137.240662 152.712891,137.222214 150.670624,137.069031 
	C149.251236,136.583633 148.151886,136.233002 146.873718,135.602386 
	C142.408768,132.236771 138.246628,128.952850 133.778366,126.158394 
	C131.862564,124.960243 129.310211,124.779869 127.034874,123.852997 
	C127.014709,123.379539 127.006760,123.190147 126.998802,123.000755 
	C132.550186,114.341049 137.368607,105.078423 143.857529,97.189911 
	C150.447601,89.178429 153.241867,78.340927 162.546722,72.418808 
	C163.374542,71.891930 163.537262,70.393715 164.140991,69.429344 
	C168.695602,62.154129 172.974762,54.677628 177.978439,47.723400 
	C180.895248,43.669559 185.484161,40.820507 188.410995,36.771740 
	C191.263992,32.825111 192.822647,27.964983 195.230530,23.663191 
	C196.154343,22.012777 197.851654,20.793877 199.203537,19.385090 
	C199.986191,18.569517 201.605301,17.520473 201.448090,16.996719 
	C199.521973,10.580195 204.980438,7.925803 207.814697,3.942679 
	C208.285614,3.280892 208.511917,2.445062 208.925629,1.344830 
	C217.354233,1.000000 225.708466,1.000000 234.531342,0.999998 
M178.566650,74.997391 
	C179.607468,74.255386 181.367111,73.647957 181.536575,72.742821 
	C181.869278,70.965782 181.904526,68.590645 180.944366,67.286423 
	C180.183075,66.252350 177.486420,65.765701 176.141861,66.292831 
	C174.876205,66.789024 173.204315,69.356987 173.570526,70.256584 
	C174.317825,72.092331 176.315109,73.419243 178.566650,74.997391 
z"/>
<path fill="#FC6F27" opacity="1.000000" stroke="none" 
	d="
M96.468658,361.000000 
	C97.993866,358.050537 100.089943,355.163757 101.949570,352.131958 
	C103.464394,349.662292 104.724907,347.033600 106.039368,344.445557 
	C106.555283,343.429779 106.601189,341.880249 107.387192,341.341888 
	C116.114563,335.364563 119.028343,325.224335 124.754890,317.126587 
	C128.894775,311.272552 134.685638,306.455933 136.327194,298.824982 
	C136.805328,296.602356 139.866455,295.058014 141.192902,292.869019 
	C143.718658,288.700897 145.805542,284.268982 148.174408,280.001953 
	C148.698807,279.057343 149.691742,277.590271 150.377335,277.639526 
	C156.783981,278.099487 156.334381,272.742218 157.920715,269.096558 
	C158.563232,267.619904 158.927765,265.421783 160.063599,264.863190 
	C165.255386,262.309967 167.444290,257.572968 169.964569,252.897263 
	C171.904099,249.298935 173.528793,245.935959 172.339844,241.593719 
	C171.825424,239.714981 172.731979,237.447144 173.399033,235.103149 
	C173.804993,234.850235 174.054947,234.978867 174.021118,235.417816 
	C174.049667,237.901840 174.112061,239.946915 174.114288,242.297028 
	C174.348938,243.076736 174.643753,243.551422 175.009079,244.449341 
	C175.111038,246.579025 175.142471,248.285492 175.116333,250.299957 
	C175.372620,251.072159 175.686478,251.536392 176.067535,252.339600 
	C176.424545,253.785645 176.714355,254.892746 176.952667,256.377502 
	C177.010269,257.506470 177.119339,258.257782 177.198975,259.411987 
	C177.825882,263.874023 178.482254,267.933167 179.082886,272.391479 
	C179.838623,280.030579 180.716812,280.812592 186.035614,279.040771 
	C186.069901,279.080444 186.137329,279.160767 186.137329,279.160767 
	C186.172440,281.699677 186.207550,284.238586 185.563263,286.931458 
	C179.413925,287.230499 178.796356,287.970459 179.161789,293.941620 
	C176.338577,295.380310 172.852203,296.212402 170.849655,298.401733 
	C167.943542,301.578918 166.319473,305.888092 163.760498,309.434387 
	C160.974625,313.295135 157.759750,316.847992 154.696930,320.505798 
	C154.067413,321.257568 153.070923,321.759430 152.604599,322.581299 
	C149.307236,328.393005 146.405884,334.454163 142.775803,340.044556 
	C139.842010,344.562622 135.893433,348.409698 132.736572,352.800018 
	C131.149445,355.007263 130.322327,357.761047 129.075775,360.633850 
	C118.312439,361.000000 107.624878,361.000000 96.468658,361.000000 
z"/>
<path fill="#FB532E" opacity="1.000000" stroke="none" 
	d="
M297.468658,361.000000 
	C297.370728,357.451569 298.238647,354.452240 301.688843,352.243713 
	C303.500397,351.084106 304.003967,348.026733 305.392456,346.031128 
	C308.568542,341.466461 312.074432,337.127533 315.171234,332.512329 
	C319.031525,326.759369 320.636108,319.491455 327.457123,315.710083 
	C329.163849,314.763916 329.646454,311.742554 330.886597,309.799377 
	C337.245911,299.834778 343.563385,289.840515 350.115204,280.002960 
	C353.280396,275.250488 356.928009,270.819305 360.678589,266.121307 
	C361.000000,297.579285 361.000000,329.158600 361.000000,361.000000 
	C339.979828,361.000000 318.958588,361.000000 297.468658,361.000000 
z"/>
<path fill="#FC6E27" opacity="1.000000" stroke="none" 
	d="
M246.399200,164.996216 
	C246.773239,163.801193 247.532074,162.597336 248.326248,161.417267 
	C249.061432,160.324875 250.671600,159.038422 250.455734,158.215134 
	C248.980118,152.586792 253.006058,150.957657 256.648254,148.800110 
	C259.466888,147.130463 261.475220,144.832855 261.187897,141.134186 
	C261.123871,140.310104 261.829010,138.835403 262.475616,138.640366 
	C267.720093,137.058578 267.913544,132.990952 268.489075,128.520035 
	C268.709015,126.811790 271.883148,125.540428 273.598480,123.948715 
	C274.791351,122.841827 276.677307,121.566948 276.732910,120.300346 
	C277.054291,112.981514 280.796112,108.163193 286.956268,104.828064 
	C287.100342,104.750076 287.333191,104.757614 287.410461,104.646133 
	C289.918701,101.027176 293.475952,97.709129 294.648865,93.695198 
	C296.231689,88.278427 297.169800,83.318199 304.635986,83.356354 
	C304.089142,81.523216 303.229919,80.201294 303.484711,79.149208 
	C303.918335,77.359055 304.621552,74.928284 305.977722,74.206680 
	C309.350220,72.412239 311.910950,70.557442 311.349091,66.293564 
	C311.306213,65.968254 311.288666,65.620270 311.355255,65.302971 
	C311.805817,63.156212 320.585968,54.749378 322.869659,54.509781 
	C326.989166,54.077576 326.202332,50.744923 326.922455,48.193722 
	C327.537140,46.016075 327.994446,43.520985 329.373474,41.884266 
	C333.225281,37.312634 334.862976,31.083731 340.775482,27.888540 
	C342.549133,26.930023 342.629181,22.810881 343.447906,20.128351 
	C343.689545,19.336721 343.932465,18.509895 343.955841,17.692936 
	C344.120514,11.933286 351.825043,13.848199 352.462921,10.079325 
	C353.320587,5.011787 355.579590,3.147485 360.600525,3.009588 
	C361.000000,10.354252 361.000000,17.708504 361.000000,25.531372 
	C357.985199,30.117537 354.951538,34.221474 351.968872,38.362160 
	C351.217743,39.404930 350.678802,40.598293 349.958801,41.666122 
	C346.848511,46.278915 343.726990,50.884499 340.560608,55.458786 
	C339.919800,56.384506 339.219025,57.433731 338.283752,57.960800 
	C334.957184,59.835445 334.204376,61.722515 337.505402,63.591053 
	C335.116028,65.373039 332.614136,66.991821 330.418243,68.953209 
	C328.593872,70.582756 327.316833,72.505432 330.069672,74.756721 
	C330.525299,75.129364 330.068787,77.164307 329.502716,78.114799 
	C328.586151,79.653824 327.229584,80.930824 326.042206,82.338120 
	C319.633636,81.360748 317.958252,82.441681 315.930847,88.892128 
	C315.732483,89.523178 315.708679,90.444618 315.274506,90.729797 
	C310.648956,93.767822 310.504669,98.189369 312.294098,103.925270 
	C306.326782,100.834328 305.291748,104.228981 303.286591,107.816788 
	C300.324432,113.117027 296.063354,117.677811 292.568573,122.701790 
	C291.456421,124.300613 290.995575,126.361259 290.288147,128.230042 
	C289.738037,129.683212 289.637848,131.484650 288.696381,132.580154 
	C285.076752,136.791977 280.967194,140.595062 277.488098,144.911484 
	C274.492920,148.627533 272.093719,152.825836 269.456085,156.827423 
	C267.636505,159.587952 265.136017,162.465683 271.932831,164.185806 
	C271.426697,164.514435 270.920563,164.843048 270.414429,165.171661 
	C264.545319,165.171661 258.676208,165.171661 252.378082,164.796783 
	C251.617813,163.944443 251.286560,163.466965 250.955292,162.989502 
	C250.637253,163.659058 250.319229,164.328613 250.001221,164.998169 
	C248.933960,164.998047 247.866699,164.997910 246.399200,164.996216 
z"/>
<path fill="#FC7524" opacity="1.000000" stroke="none" 
	d="
M247.094650,100.279205 
	C242.041672,96.601868 242.035583,96.053658 246.795746,91.406761 
	C247.492004,90.727066 248.394073,89.937195 248.554092,89.077858 
	C250.576248,78.217621 258.477356,70.996887 264.692169,62.730663 
	C269.651672,56.134098 275.903137,50.097572 279.146820,42.739346 
	C282.316193,35.549652 288.401489,31.004801 291.763367,24.769463 
	C294.504974,19.684525 297.647766,14.859821 300.581696,9.907957 
	C302.243195,7.103696 304.148743,4.444059 305.972168,1.359643 
	C312.687653,1.000000 319.375275,1.000000 326.531464,1.000000 
	C327.931671,5.038707 327.766724,8.581869 323.274841,10.602194 
	C322.312317,11.035101 321.588776,12.179755 320.952484,13.128857 
	C316.234680,20.165821 311.631378,27.280453 306.848022,34.272125 
	C305.181122,36.708603 303.128387,38.884369 301.209839,41.143539 
	C300.570923,41.895847 299.235931,42.493793 299.179291,43.235588 
	C298.665131,49.972965 292.431549,52.710140 289.403168,57.622791 
	C285.377014,64.154076 282.097168,71.148239 278.014801,77.640533 
	C276.598999,79.892136 273.745819,81.239922 270.839325,82.919861 
	C268.151947,83.347603 265.674194,83.272919 264.283813,84.465744 
	C258.378357,89.532074 252.795410,94.974289 247.094650,100.279205 
z"/>
<path fill="#FC6E27" opacity="1.000000" stroke="none" 
	d="
M361.000000,34.666664 
	C360.845917,34.385605 360.691833,33.771210 360.768860,33.078407 
	C361.000000,33.444447 361.000000,33.888889 361.000000,34.666664 
z"/>
<path fill="#FC8222" opacity="1.000000" stroke="none" 
	d="
M83.999535,174.975357 
	C86.477150,173.533020 88.851379,171.845642 91.471153,170.740219 
	C93.043373,170.076813 94.998924,170.321899 96.595940,170.175720 
	C96.464317,168.627884 95.658791,166.644272 96.317200,165.511734 
	C98.399658,161.929703 100.993515,158.639450 103.455338,155.284592 
	C109.216972,147.432953 114.976608,139.578964 120.844879,131.807327 
	C121.721977,130.645737 123.181686,129.924072 125.049011,129.141724 
	C128.490875,132.498871 131.255600,135.713196 134.071289,139.168793 
	C134.475067,139.744781 134.827881,140.079529 135.371140,140.721222 
	C137.341202,145.357468 139.120819,149.686768 140.805389,154.235718 
	C140.710342,154.455353 140.798004,154.925888 140.605865,155.220886 
	C139.824860,157.332260 139.235977,159.148651 138.458267,161.068619 
	C138.062469,161.398193 137.972565,161.663818 137.718658,162.152740 
	C135.124222,164.171677 132.810837,166.006927 130.109375,167.874420 
	C127.141624,168.353561 124.561966,168.800476 121.739273,169.201279 
	C121.496246,169.155182 121.052048,169.373001 120.653694,169.374390 
	C118.962227,169.611008 117.671829,169.862534 116.375557,170.078842 
	C106.583916,171.712723 96.791122,173.339676 86.625793,174.919037 
	C85.501770,174.904633 84.750656,174.940002 83.999535,174.975357 
z"/>
<path fill="#FDFAF6" opacity="1.000000" stroke="none" 
	d="
M134.020340,138.927521 
	C131.255600,135.713196 128.490875,132.498871 125.430832,129.120987 
	C125.102913,128.532898 125.070297,128.108353 125.353210,127.231400 
	C126.128197,125.898338 126.587631,125.017700 127.047073,124.137054 
	C129.310211,124.779869 131.862564,124.960243 133.778366,126.158394 
	C138.246628,128.952850 142.408768,132.236771 146.679108,135.877563 
	C145.122177,136.367676 143.245926,136.848404 142.097748,136.143402 
	C137.053513,133.046143 135.811279,133.364166 134.020340,138.927521 
z"/>
<path fill="#FCF7F0" opacity="1.000000" stroke="none" 
	d="
M73.194809,181.965118 
	C71.030815,181.339478 68.847054,180.962601 67.532616,179.688721 
	C66.906403,179.081879 67.448982,176.313232 68.348045,175.355331 
	C69.259232,174.384506 71.389381,173.859314 72.763695,174.158493 
	C76.253929,174.918289 76.510475,178.359970 73.194809,181.965118 
z"/>
<path fill="#FDFAF6" opacity="1.000000" stroke="none" 
	d="
M83.739090,175.229584 
	C84.750656,174.940002 85.501770,174.904633 86.651237,175.277924 
	C88.034264,177.931442 89.018944,180.176315 90.003632,182.421173 
	C89.837517,182.501495 89.671394,182.581818 89.251602,182.772812 
	C88.578896,182.729111 88.159866,182.574753 87.130814,182.360229 
	C86.329575,182.322922 86.138367,182.345779 85.947151,182.368652 
	C81.163948,180.571396 80.807930,179.578445 83.739090,175.229584 
z"/>
<path fill="#FC8222" opacity="1.000000" stroke="none" 
	d="
M127.034866,123.852989 
	C126.587631,125.017700 126.128197,125.898338 125.397522,126.914093 
	C125.554222,125.766426 125.982155,124.483635 126.704437,123.100800 
	C127.006760,123.190147 127.014709,123.379539 127.034866,123.852989 
z"/>
<path fill="#FC7F22" opacity="1.000000" stroke="none" 
	d="
M86.055496,182.510559 
	C86.138367,182.345779 86.329575,182.322922 86.794601,182.391785 
	C86.766891,182.539825 86.465363,182.596146 86.055496,182.510559 
z"/>
<path fill="#FFFEFE" opacity="1.000000" stroke="none" 
	d="
M90.383095,182.564957 
	C89.018944,180.176315 88.034264,177.931442 87.024139,175.327698 
	C96.791122,173.339676 106.583916,171.712723 116.375557,170.078842 
	C117.671829,169.862534 118.962227,169.611008 120.770615,169.427917 
	C121.555977,169.523056 121.788116,169.445496 121.982307,169.247375 
	C124.561966,168.800476 127.141624,168.353561 130.523010,167.884689 
	C135.097504,167.651138 137.950623,166.397980 137.999710,161.969055 
	C137.972565,161.663818 138.062469,161.398193 138.811676,161.012878 
	C142.910843,159.626938 143.576736,157.695999 140.798004,154.925888 
	C140.798004,154.925888 140.710342,154.455353 141.099640,154.019714 
	C144.309738,148.087570 140.799240,140.758667 135.180695,140.414261 
	C134.827881,140.079529 134.475067,139.744781 134.071289,139.168793 
	C135.811279,133.364166 137.053513,133.046143 142.097748,136.143402 
	C143.245926,136.848404 145.122177,136.367676 146.857925,136.157532 
	C148.151886,136.233002 149.251236,136.583633 150.831985,137.360809 
	C153.214081,137.640198 155.114777,137.493042 157.015472,137.345886 
	C168.092346,134.838272 170.479797,126.492676 171.232544,116.266243 
	C171.508224,114.497734 171.383972,113.243088 171.259735,111.988434 
	C171.302750,110.918396 171.345764,109.848366 171.886765,108.344452 
	C176.060974,104.811096 176.046646,102.136238 172.336975,98.985588 
	C172.573349,95.938248 172.809723,92.890915 173.390381,89.304703 
	C175.170959,84.723152 178.050674,82.816628 182.319092,82.965263 
	C183.060440,87.643814 183.801773,92.322372 184.218781,97.539520 
	C180.737671,100.319817 182.821045,101.166245 184.939590,102.003311 
	C185.538986,105.416870 186.138367,108.830421 186.884506,112.622482 
	C187.307648,115.726860 187.584045,118.452721 187.536514,121.751923 
	C184.357162,126.244644 187.359528,129.107895 189.531204,131.389984 
	C192.496216,134.505783 196.331360,136.707184 201.079407,134.958511 
	C207.260132,135.161148 212.194687,132.717758 216.648788,128.458817 
	C224.808716,120.656418 233.271103,113.170303 242.079803,105.140808 
	C243.432190,103.509987 244.312134,102.290642 245.192078,101.071304 
	C245.738983,100.975555 246.285904,100.879799 246.963730,100.531631 
	C252.795410,94.974289 258.378357,89.532074 264.283813,84.465744 
	C265.674194,83.272919 268.151947,83.347603 270.457153,82.958679 
	C273.147125,87.099037 269.476501,89.433784 267.683441,91.553123 
	C258.402100,102.523338 248.679291,113.120064 238.468063,124.012474 
	C234.876068,124.624817 232.830902,125.729500 234.126892,129.264038 
	C233.816666,129.736252 233.506439,130.208450 232.632233,130.756226 
	C227.008728,130.026077 227.577316,133.357742 227.896820,136.506287 
	C227.896820,136.506287 227.860046,136.799530 227.442841,136.753159 
	C226.331329,137.761780 225.637024,138.816772 224.942719,139.871765 
	C224.942719,139.871750 224.959854,139.953369 224.749908,140.123093 
	C224.327774,140.525894 224.157608,140.786423 224.029495,141.074432 
	C224.029495,141.074432 223.999084,141.019943 223.677246,141.047577 
	C220.926697,141.667053 218.704224,142.333908 221.933380,144.984039 
	C221.717224,146.726700 221.501068,148.469376 220.984375,150.883972 
	C219.711639,154.368546 219.310196,156.959381 223.149841,157.902237 
	C223.149841,157.902237 223.063736,157.904205 223.170380,158.085083 
	C223.445724,158.551804 223.654282,158.804749 223.902710,159.024826 
	C225.744583,160.645721 227.586472,162.266617 229.798218,164.374115 
	C231.443008,165.247879 232.717926,165.635056 233.992844,166.022217 
	C235.387131,166.021515 236.781418,166.020813 238.589539,165.958725 
	C244.393295,166.606308 249.783203,167.315277 255.695068,168.354919 
	C257.147400,168.522491 258.077789,168.359360 259.008179,168.196228 
	C263.045227,168.520218 267.082245,168.844208 271.590820,169.637970 
	C272.372375,172.684204 272.682404,175.260651 272.992462,177.837097 
	C270.793671,177.970993 268.594879,178.104889 265.726349,178.208252 
	C264.723358,178.310516 264.390076,178.443329 264.056824,178.576141 
	C259.316864,179.355316 254.576920,180.134476 249.330444,180.646774 
	C247.872604,180.680649 246.921265,180.981384 245.969940,181.282120 
	C243.677780,181.723770 241.385635,182.165405 238.421844,182.349304 
	C236.501114,182.421326 235.252029,182.751099 234.002930,183.080856 
	C234.002930,183.080856 233.586288,183.303986 233.172455,183.013763 
	C228.744598,180.011948 227.635101,182.560577 226.972473,185.918488 
	C222.505219,189.954178 219.852600,194.758713 220.377594,201.561157 
	C220.435745,202.753983 220.700302,203.382629 220.964874,204.011261 
	C221.752213,205.371597 222.539536,206.731934 223.158569,208.548798 
	C222.269455,209.565140 221.548660,210.124939 220.766205,210.732635 
	C227.588257,216.291870 227.588257,216.291870 229.748337,216.017807 
	C230.401413,216.682343 231.054489,217.346878 231.404709,218.442154 
	C228.343872,220.057037 225.585861,221.241196 222.544495,222.293121 
	C221.489349,221.483795 220.717560,220.806732 219.929779,219.752869 
	C218.309967,217.297119 216.779526,215.156082 215.085571,213.153381 
	C212.359665,209.930695 210.780121,211.202271 209.438812,214.609161 
	C206.719360,214.670807 204.432327,214.752716 202.056107,214.492310 
	C201.423447,213.677017 200.879959,213.204056 200.336487,212.731079 
	C199.887222,213.809845 199.437958,214.888611 198.807220,216.195984 
	C198.111221,216.684967 197.596695,216.945374 196.842255,217.031509 
	C195.748871,217.939362 194.895416,219.021484 193.922028,220.434418 
	C192.768936,223.505386 191.735779,226.245544 190.367798,229.044327 
	C189.348145,232.761093 188.632095,236.414352 188.057022,240.089661 
	C188.022995,240.307098 189.122406,240.701904 189.739716,241.394684 
	C189.523773,243.517044 189.262512,245.258865 188.771301,247.076447 
	C188.667099,247.769119 188.792847,248.386047 188.959473,249.406738 
	C188.895355,250.883072 188.790344,251.955673 188.608276,253.131714 
	C188.426498,253.490906 188.456314,253.732315 188.675873,254.358551 
	C188.413010,257.502075 188.094925,260.246399 187.526550,263.098572 
	C187.377213,264.142334 187.478210,265.078217 187.579208,266.014130 
	C187.456055,267.818756 187.332901,269.623352 187.259903,271.785095 
	C187.310059,272.142181 187.355988,272.191803 187.239960,272.385193 
	C187.123947,272.578613 186.904236,272.972748 186.510498,272.968994 
	C183.790710,272.640900 181.464676,272.316620 179.138626,271.992310 
	C178.482254,267.933167 177.825882,263.874023 177.455444,259.291565 
	C177.495636,257.845459 177.249893,256.922638 177.004150,255.999832 
	C176.714355,254.892746 176.424545,253.785645 176.201202,252.151154 
	C175.903076,251.079819 175.538483,250.535889 175.173889,249.991959 
	C175.142471,248.285492 175.111038,246.579025 175.149536,244.263138 
	C174.871124,243.099808 174.522797,242.545914 174.174454,241.992004 
	C174.112061,239.946915 174.049667,237.901840 174.155197,235.264206 
	C174.158798,234.107361 173.994476,233.543076 173.830170,232.978775 
	C173.658051,232.541870 173.485931,232.104980 173.376190,231.194702 
	C173.487946,230.444992 173.408981,230.208878 173.201675,230.013000 
	C173.022217,229.314926 172.842743,228.616852 172.840302,227.306732 
	C174.917007,222.665298 172.306290,222.175308 169.318542,221.981171 
	C166.435242,220.386963 163.551941,218.792770 160.190338,216.763550 
	C158.140305,216.536057 156.568542,216.743561 154.996780,216.951080 
	C153.293457,217.632980 151.590134,218.314911 149.196960,218.900223 
	C146.688446,218.871384 144.869812,218.939163 143.051163,219.006927 
	C143.421036,220.454132 143.790924,221.901337 144.160797,223.348541 
	C144.113892,223.646286 143.958115,223.867294 143.104828,224.094650 
	C141.818024,225.064575 141.119873,225.951416 140.421722,226.838257 
	C140.119308,227.191940 139.816895,227.545639 139.086273,228.095245 
	C138.402878,228.493774 138.183777,228.729889 138.000793,228.999496 
	C137.609299,229.439789 137.217804,229.880081 136.382416,230.243637 
	C132.768066,229.053650 133.878128,231.264023 133.978897,232.690735 
	C133.556915,233.145905 133.134918,233.601074 132.192108,233.991119 
	C126.998322,234.426895 124.000626,236.586182 123.981430,241.694016 
	C123.002762,242.681900 122.024086,243.669800 120.501686,244.506943 
	C118.405533,244.642990 116.632439,244.550034 115.347282,245.296799 
	C112.781487,246.787704 110.483322,248.739182 108.074631,250.500458 
	C107.694511,250.141312 107.314400,249.782166 106.934280,249.423019 
	C108.162392,247.629395 109.470978,245.884720 110.599037,244.030228 
	C112.143425,241.491302 113.550697,238.868973 115.016739,236.282394 
	C115.796638,235.267136 116.576530,234.251877 117.854271,233.378128 
	C119.281433,234.676834 120.210747,235.834000 121.140060,236.991180 
	C121.576782,236.805145 122.013504,236.619125 122.450226,236.433105 
	C122.710648,233.126236 122.971069,229.819382 123.231491,226.512512 
	C123.231499,226.512512 123.270157,226.289841 123.742874,226.348755 
	C127.906807,224.686432 132.386124,224.400406 134.350220,219.733963 
	C135.357925,217.339798 137.255905,215.253464 139.015793,213.261444 
	C140.807266,211.233719 141.823898,209.719101 138.110092,209.023941 
	C138.616455,205.950562 139.122833,202.877182 139.926849,199.322144 
	C142.622910,195.768906 139.663116,195.185303 137.980865,194.008484 
	C137.367905,193.235260 136.754944,192.462051 136.037598,191.111343 
	C135.271255,190.068161 134.609314,189.602463 133.947372,189.136780 
	C133.433258,188.879120 132.919144,188.621460 132.042664,187.823853 
	C130.570023,186.914810 129.459763,186.545746 128.349487,186.176682 
	C124.500526,185.815521 120.651558,185.454361 116.326996,184.702545 
	C115.213181,183.789154 114.574974,183.266418 113.936783,182.743698 
	C113.619621,183.393875 113.302452,184.044037 112.985275,184.694214 
	C107.922272,184.210678 102.859268,183.727158 97.297516,182.847473 
	C95.863167,182.578003 94.927559,182.704697 93.991951,182.831390 
	C92.915489,182.790497 91.839020,182.749619 90.383095,182.564957 
z"/>
<path fill="#FC6F27" opacity="1.000000" stroke="none" 
	d="
M190.702606,228.985687 
	C191.735779,226.245544 192.768936,223.505386 194.205246,220.319107 
	C195.432999,218.983917 196.257584,218.094833 197.082184,217.205750 
	C197.596695,216.945374 198.111221,216.684967 199.090683,216.185867 
	C200.418839,215.576324 201.282059,215.205475 202.145279,214.834625 
	C204.432327,214.752716 206.719360,214.670807 209.739014,214.740845 
	C213.629669,216.638412 216.787735,218.384033 219.945786,220.129654 
	C220.717560,220.806732 221.489349,221.483795 222.721146,222.527710 
	C223.894852,223.554703 224.608536,224.214859 225.322220,224.875000 
	C223.671509,225.632568 222.022003,226.392746 220.369644,227.146652 
	C219.467743,227.558151 218.108017,227.711349 217.729080,228.404404 
	C215.037292,233.327576 212.579651,238.378006 209.973175,243.348984 
	C208.969543,245.263107 207.949310,247.213745 206.628494,248.907425 
	C203.392990,253.056274 199.537292,256.790710 196.779053,261.219940 
	C194.689224,264.575836 192.591141,266.162415 188.365570,264.735291 
	C187.902374,263.885742 187.839600,263.438263 187.776855,262.990753 
	C188.094925,260.246399 188.413010,257.502075 188.754517,254.130127 
	C188.777924,253.502548 188.685349,253.028259 188.685349,253.028259 
	C188.790344,251.955673 188.895355,250.883072 189.067261,249.081924 
	C189.089859,247.902481 189.045563,247.451584 189.001251,247.000702 
	C189.262512,245.258865 189.523773,243.517044 189.851517,240.974701 
	C190.179535,236.444687 190.441071,232.715195 190.702606,228.985687 
z"/>
<path fill="#FDFAF6" opacity="1.000000" stroke="none" 
	d="
M225.633087,224.994232 
	C224.608536,224.214859 223.894852,223.554703 223.004517,222.659943 
	C225.585861,221.241196 228.343872,220.057037 231.535858,218.768524 
	C233.844193,220.743942 235.634323,222.908112 237.613113,224.883270 
	C240.404099,227.669144 240.510635,230.245270 236.600769,233.366943 
	C233.206726,230.738327 229.575348,227.925888 225.633087,224.994232 
z"/>
<path fill="#FCF0EA" opacity="1.000000" stroke="none" 
	d="
M294.471741,170.284058 
	C296.997528,175.916977 295.762756,177.780426 289.536194,177.676712 
	C288.618195,176.827789 288.082123,176.086746 287.333130,174.795044 
	C287.090973,173.495834 287.061646,172.747314 287.032349,171.998779 
	C288.750580,168.873947 291.243500,168.751801 294.471741,170.284058 
z"/>
<path fill="#FCF5F0" opacity="1.000000" stroke="none" 
	d="
M179.494705,294.052124 
	C178.796356,287.970459 179.413925,287.230499 185.273224,287.121521 
	C187.877426,289.469849 188.385513,292.497253 186.214172,294.467621 
	C185.097275,295.481140 182.019379,294.333618 179.494705,294.052124 
z"/>
<path fill="#FDFAF6" opacity="1.000000" stroke="none" 
	d="
M273.367432,177.908142 
	C272.682404,175.260651 272.372375,172.684204 272.021790,169.731018 
	C272.780426,169.402924 273.582397,169.424332 274.378387,169.505051 
	C277.222504,169.793518 279.988312,171.125580 279.244080,174.081833 
	C278.827209,175.737701 275.666687,176.702850 273.367432,177.908142 
z"/>
<path fill="#FDFAF6" opacity="1.000000" stroke="none" 
	d="
M229.629150,215.719513 
	C227.588257,216.291870 227.588257,216.291870 220.766205,210.732635 
	C221.548660,210.124939 222.269455,209.565140 223.296539,208.860626 
	C225.571869,210.951019 227.540909,213.186127 229.629150,215.719513 
z"/>
<path fill="#FC6E27" opacity="1.000000" stroke="none" 
	d="
M301.841705,121.203133 
	C300.485840,117.309044 301.164734,116.485359 305.973724,117.083862 
	C304.458069,118.665611 303.285858,119.888908 301.841705,121.203133 
z"/>
<path fill="#FC6F27" opacity="1.000000" stroke="none" 
	d="
M187.355988,272.191803 
	C187.355988,272.191803 187.310059,272.142181 187.327606,272.113281 
	C188.412155,272.754364 189.479156,273.424316 190.546143,274.094299 
	C189.313629,275.735779 188.081116,277.377258 186.492966,279.089752 
	C186.137329,279.160767 186.069901,279.080444 186.138641,278.705994 
	C186.522583,277.221222 186.837814,276.110931 187.387650,274.861938 
	C187.533493,273.879456 187.444733,273.035614 187.355988,272.191803 
z"/>
<path fill="#FDFAF6" opacity="1.000000" stroke="none" 
	d="
M227.304657,185.842010 
	C227.635101,182.560577 228.744598,180.011948 232.936310,183.005005 
	C231.288269,184.112793 229.462555,184.939163 227.304657,185.842010 
z"/>
<path fill="#FC6E27" opacity="1.000000" stroke="none" 
	d="
M295.423157,127.435913 
	C296.233704,127.323662 296.941711,127.485458 297.649719,127.647255 
	C297.428558,128.191666 297.207428,128.736084 296.986267,129.280487 
	C296.431061,128.756973 295.875854,128.233475 295.423157,127.435913 
z"/>
<path fill="#FDFAF6" opacity="1.000000" stroke="none" 
	d="
M234.356293,183.138214 
	C235.252029,182.751099 236.501114,182.421326 237.983215,182.359650 
	C237.047379,182.817017 235.878510,183.006302 234.356293,183.138214 
z"/>
<path fill="#FDFAF6" opacity="1.000000" stroke="none" 
	d="
M246.277832,181.320465 
	C246.921265,180.981384 247.872604,180.680649 248.914536,180.611816 
	C248.198669,181.015427 247.392212,181.187119 246.277832,181.320465 
z"/>
<path fill="#FB6729" opacity="1.000000" stroke="none" 
	d="
M286.752991,172.104141 
	C287.061646,172.747314 287.090973,173.495834 287.117371,174.620102 
	C286.900848,174.067062 286.687286,173.138275 286.752991,172.104141 
z"/>
<path fill="#FDFAF6" opacity="1.000000" stroke="none" 
	d="
M187.526535,263.098572 
	C187.839600,263.438263 187.902374,263.885742 188.024094,264.667908 
	C187.999054,265.171173 187.915070,265.339752 187.705139,265.761230 
	C187.478210,265.078217 187.377213,264.142334 187.526535,263.098572 
z"/>
<path fill="#FC7226" opacity="1.000000" stroke="none" 
	d="
M250.334320,164.998444 
	C250.319229,164.328613 250.637253,163.659058 250.955292,162.989502 
	C251.286560,163.466965 251.617813,163.944443 251.974472,164.710342 
	C251.555710,164.998749 251.111572,164.998718 250.334320,164.998444 
z"/>
<path fill="#FDFAF6" opacity="1.000000" stroke="none" 
	d="
M258.636230,168.114746 
	C258.077789,168.359360 257.147400,168.522491 256.104736,168.428452 
	C256.749756,168.125275 257.507019,168.079269 258.636230,168.114746 
z"/>
<path fill="#FDFAF6" opacity="1.000000" stroke="none" 
	d="
M220.981400,203.724854 
	C220.700302,203.382629 220.435745,202.753983 220.376190,201.959503 
	C220.720108,202.341919 220.859024,202.890182 220.981400,203.724854 
z"/>
<path fill="#FDFAF6" opacity="1.000000" stroke="none" 
	d="
M264.341644,178.609756 
	C264.390076,178.443329 264.723358,178.310516 265.325684,178.130402 
	C265.272003,178.269867 264.949249,178.456619 264.341644,178.609756 
z"/>
<path fill="#FDFAF6" opacity="1.000000" stroke="none" 
	d="
M114.736053,236.436798 
	C113.550697,238.868973 112.143425,241.491302 110.599037,244.030228 
	C109.470978,245.884720 108.162392,247.629395 106.934280,249.423019 
	C107.314400,249.782166 107.694511,250.141312 108.074631,250.500458 
	C110.483322,248.739182 112.781487,246.787704 115.347282,245.296799 
	C116.632439,244.550034 118.405533,244.642990 120.182007,244.649307 
	C113.895927,251.033218 107.385796,257.123993 100.698830,263.513367 
	C97.895241,266.063751 95.417580,268.534027 92.576973,270.472443 
	C91.217628,271.400024 89.170441,271.319611 87.434799,271.695740 
	C87.768456,269.969818 87.535576,267.766327 88.524666,266.592896 
	C97.043190,256.486908 105.782173,246.566788 114.736053,236.436798 
z"/>
<path fill="#FDFAF6" opacity="1.000000" stroke="none" 
	d="
M137.844772,209.231430 
	C141.823898,209.719101 140.807266,211.233719 139.015793,213.261444 
	C137.255905,215.253464 135.357925,217.339798 134.350220,219.733963 
	C132.386124,224.400406 127.906807,224.686432 123.849762,226.312134 
	C128.182449,220.624023 132.880951,215.031464 137.844772,209.231430 
z"/>
<path fill="#FDFAF6" opacity="1.000000" stroke="none" 
	d="
M122.995148,226.714142 
	C122.971069,229.819382 122.710648,233.126236 122.450226,236.433105 
	C122.013504,236.619125 121.576782,236.805145 121.140060,236.991180 
	C120.210747,235.834000 119.281433,234.676834 118.147560,233.244003 
	C119.548264,230.950821 121.153534,228.933289 122.995148,226.714142 
z"/>
<path fill="#FDFAF6" opacity="1.000000" stroke="none" 
	d="
M138.007263,194.341766 
	C139.663116,195.185303 142.622910,195.768906 139.930939,198.915863 
	C139.102798,197.552505 138.568222,196.113785 138.007263,194.341766 
z"/>
<path fill="#FDFAF6" opacity="1.000000" stroke="none" 
	d="
M113.351974,184.803650 
	C113.302452,184.044037 113.619621,183.393875 113.936783,182.743698 
	C114.574974,183.266418 115.213181,183.789154 115.928223,184.597351 
	C115.242928,184.892929 114.480789,184.903015 113.351974,184.803650 
z"/>
<path fill="#FDFAF6" opacity="1.000000" stroke="none" 
	d="
M94.359741,182.932663 
	C94.927559,182.704697 95.863167,182.578003 96.899841,182.721924 
	C96.243118,183.006348 95.485321,183.020142 94.359741,182.932663 
z"/>
<path fill="#FDFAF6" opacity="1.000000" stroke="none" 
	d="
M134.062897,189.403015 
	C134.609314,189.602463 135.271255,190.068161 135.942108,190.828278 
	C135.360153,190.638229 134.769287,190.153748 134.062897,189.403015 
z"/>
<path fill="#FDFAF6" opacity="1.000000" stroke="none" 
	d="
M128.605209,186.412933 
	C129.459763,186.545746 130.570023,186.914810 131.852081,187.603180 
	C130.969543,187.498032 129.915237,187.073608 128.605209,186.412933 
z"/>
<path fill="#FDFAF6" opacity="1.000000" stroke="none" 
	d="
M124.267883,241.552567 
	C124.000626,236.586182 126.998322,234.426895 131.908264,234.122955 
	C129.614929,236.683624 127.084633,239.047363 124.267883,241.552567 
z"/>
<path fill="#FDFAF6" opacity="1.000000" stroke="none" 
	d="
M144.464081,223.210220 
	C143.790924,221.901337 143.421036,220.454132 143.051163,219.006927 
	C144.869812,218.939163 146.688446,218.871384 148.858063,218.957245 
	C147.728470,220.431229 146.247910,221.751556 144.464081,223.210220 
z"/>
<path fill="#FDFAF6" opacity="1.000000" stroke="none" 
	d="
M169.450867,222.259079 
	C172.306290,222.175308 174.917007,222.665298 172.757782,226.955383 
	C171.526550,225.656403 170.554871,224.096695 169.450867,222.259079 
z"/>
<path fill="#FDFAF6" opacity="1.000000" stroke="none" 
	d="
M155.412903,216.992981 
	C156.568542,216.743561 158.140305,216.536057 159.857330,216.627945 
	C158.611420,216.963196 157.220215,216.999054 155.412903,216.992981 
z"/>
<path fill="#FDFAF6" opacity="1.000000" stroke="none" 
	d="
M134.224335,232.592712 
	C133.878128,231.264023 132.768066,229.053650 136.116180,230.383179 
	C135.685822,231.231216 135.077789,231.862946 134.224335,232.592712 
z"/>
<path fill="#FDFAF6" opacity="1.000000" stroke="none" 
	d="
M140.707123,226.665176 
	C141.119873,225.951416 141.818024,225.064575 142.902679,224.147095 
	C142.523621,224.908325 141.758072,225.700211 140.707123,226.665176 
z"/>
<path fill="#FDFAF6" opacity="1.000000" stroke="none" 
	d="
M173.747711,233.262238 
	C173.994476,233.543076 174.158798,234.107361 174.189026,234.825256 
	C174.054947,234.978867 173.804993,234.850235 173.680908,234.784149 
	C173.592972,234.327286 173.629120,233.936508 173.747711,233.262238 
z"/>
<path fill="#FDFAF6" opacity="1.000000" stroke="none" 
	d="
M173.163971,230.257538 
	C173.408981,230.208878 173.487946,230.444992 173.380203,230.838989 
	C173.321838,230.956635 173.126251,230.502075 173.163971,230.257538 
z"/>
<path fill="#FDFAF6" opacity="1.000000" stroke="none" 
	d="
M138.249771,228.929398 
	C138.183777,228.729889 138.402878,228.493774 138.859543,228.156799 
	C138.873596,228.301392 138.686172,228.580338 138.249771,228.929398 
z"/>
<path fill="#FDFAF6" opacity="1.000000" stroke="none" 
	d="
M228.136169,136.325027 
	C227.577316,133.357742 227.008728,130.026077 232.384918,130.904282 
	C231.259537,132.699097 229.817520,134.421432 228.136169,136.325027 
z"/>
<path fill="#FDFAF6" opacity="1.000000" stroke="none" 
	d="
M223.092804,157.536652 
	C219.310196,156.959381 219.711639,154.368546 220.902344,151.251831 
	C221.759155,153.022186 222.397461,155.096619 223.092804,157.536652 
z"/>
<path fill="#FDFAF6" opacity="1.000000" stroke="none" 
	d="
M234.419495,129.095016 
	C232.830902,125.729500 234.876068,124.624817 238.206848,124.191704 
	C237.296021,125.778969 236.004074,127.352486 234.419495,129.095016 
z"/>
<path fill="#FDFAF6" opacity="1.000000" stroke="none" 
	d="
M222.137299,144.734161 
	C218.704224,142.333908 220.926697,141.667053 223.707367,141.055634 
	C223.486633,142.185471 222.913925,143.334885 222.137299,144.734161 
z"/>
<path fill="#FDFAF6" opacity="1.000000" stroke="none" 
	d="
M233.799789,165.736511 
	C232.717926,165.635056 231.443008,165.247879 230.077515,164.565796 
	C231.193542,164.664200 232.400146,165.057510 233.799789,165.736511 
z"/>
<path fill="#FDFAF6" opacity="1.000000" stroke="none" 
	d="
M225.197693,139.734741 
	C225.637024,138.816772 226.331329,137.761780 227.321381,136.837311 
	C226.895630,137.844437 226.174149,138.721069 225.197693,139.734741 
z"/>
<path fill="#FDFAF6" opacity="1.000000" stroke="none" 
	d="
M223.863098,158.764938 
	C223.654282,158.804749 223.445724,158.551804 223.170715,158.042023 
	C223.317444,158.047073 223.570465,158.276062 223.863098,158.764938 
z"/>
<path fill="#FDFAF6" opacity="1.000000" stroke="none" 
	d="
M224.253906,140.964508 
	C224.157608,140.786423 224.327774,140.525894 224.708984,140.130981 
	C224.886383,140.328217 224.753159,140.623352 224.253906,140.964508 
z"/>
<path fill="#FDFAF6" opacity="1.000000" stroke="none" 
	d="
M200.788162,134.760818 
	C196.331360,136.707184 192.496216,134.505783 189.531204,131.389984 
	C187.359528,129.107895 184.357162,126.244644 187.509308,122.159790 
	C189.715942,128.526840 193.771255,132.893127 200.788162,134.760818 
z"/>
<path fill="#FC7524" opacity="1.000000" stroke="none" 
	d="
M244.807648,101.051445 
	C244.312134,102.290642 243.432190,103.509987 242.252060,104.857452 
	C240.450256,104.472145 238.948669,103.958717 237.447083,103.445290 
	C238.127899,102.538834 238.808731,101.632370 239.489563,100.725914 
	C241.134125,100.827812 242.778671,100.929703 244.807648,101.051445 
z"/>
<path fill="#FDFAF6" opacity="1.000000" stroke="none" 
	d="
M182.353394,82.724693 
	C178.050674,82.816628 175.170959,84.723152 173.469849,88.887527 
	C173.231003,87.692657 173.141037,86.361664 173.302826,85.062019 
	C174.042786,79.117836 177.004028,77.893707 182.193359,81.712372 
	C182.411743,81.998711 182.387680,82.484123 182.353394,82.724693 
z"/>
<path fill="#FDFAF6" opacity="1.000000" stroke="none" 
	d="
M184.990402,101.658112 
	C182.821045,101.166245 180.737671,100.319817 184.222900,97.983429 
	C184.714630,99.030128 184.877930,100.171516 184.990402,101.658112 
z"/>
<path fill="#FC7924" opacity="1.000000" stroke="none" 
	d="
M187.506287,107.506165 
	C187.486984,107.513084 187.525604,107.499245 187.506287,107.506165 
z"/>
<path fill="#FCF7F0" opacity="1.000000" stroke="none" 
	d="
M178.182068,74.976578 
	C176.315109,73.419243 174.317825,72.092331 173.570526,70.256584 
	C173.204315,69.356987 174.876205,66.789024 176.141861,66.292831 
	C177.486420,65.765701 180.183075,66.252350 180.944366,67.286423 
	C181.904526,68.590645 181.869278,70.965782 181.536575,72.742821 
	C181.367111,73.647957 179.607468,74.255386 178.182068,74.976578 
z"/>
<path fill="#FDFAF6" opacity="1.000000" stroke="none" 
	d="
M172.228592,99.394669 
	C176.046646,102.136238 176.060974,104.811096 172.054199,107.976852 
	C171.855850,105.296677 171.988037,102.550209 172.228592,99.394669 
z"/>
<path fill="#FDFAF6" opacity="1.000000" stroke="none" 
	d="
M156.586411,137.302490 
	C155.114777,137.493042 153.214081,137.640198 151.152023,137.495575 
	C152.712891,137.222214 154.435120,137.240662 156.586411,137.302490 
z"/>
<path fill="#FDFAF6" opacity="1.000000" stroke="none" 
	d="
M171.162811,112.381958 
	C171.383972,113.243088 171.508224,114.497734 171.350739,115.877579 
	C171.067978,114.927017 171.066940,113.851250 171.162811,112.381958 
z"/>
<path fill="#FDFAF6" opacity="1.000000" stroke="none" 
	d="
M187.153046,275.000641 
	C186.837814,276.110931 186.522583,277.221222 186.104340,278.666321 
	C180.716812,280.812592 179.838623,280.030579 179.082886,272.391479 
	C181.464676,272.316620 183.790710,272.640900 186.573486,273.304718 
	C187.071167,274.096375 187.112106,274.548492 187.153046,275.000641 
z"/>
<path fill="#FDFAF6" opacity="1.000000" stroke="none" 
	d="
M176.952667,256.377502 
	C177.249893,256.922638 177.495636,257.845459 177.484894,258.888672 
	C177.119339,258.257782 177.010269,257.506470 176.952667,256.377502 
z"/>
<path fill="#FDFAF6" opacity="1.000000" stroke="none" 
	d="
M175.116333,250.299957 
	C175.538483,250.535889 175.903076,251.079819 176.133987,251.812195 
	C175.686478,251.536392 175.372620,251.072159 175.116333,250.299957 
z"/>
<path fill="#FDFAF6" opacity="1.000000" stroke="none" 
	d="
M174.114288,242.297028 
	C174.522797,242.545914 174.871124,243.099808 175.079010,243.839905 
	C174.643753,243.551422 174.348938,243.076736 174.114288,242.297028 
z"/>
<path fill="#FDFAF6" opacity="1.000000" stroke="none" 
	d="
M135.371140,140.721222 
	C140.799240,140.758667 144.309738,148.087570 141.194687,153.800079 
	C139.120819,149.686768 137.341202,145.357468 135.371140,140.721222 
z"/>
<path fill="#FDFAF6" opacity="1.000000" stroke="none" 
	d="
M140.605865,155.220886 
	C143.576736,157.695999 142.910843,159.626938 139.000504,160.909302 
	C139.235977,159.148651 139.824860,157.332260 140.605865,155.220886 
z"/>
<path fill="#FDFAF6" opacity="1.000000" stroke="none" 
	d="
M137.718658,162.152740 
	C137.950623,166.397980 135.097504,167.651138 130.911102,167.852448 
	C132.810837,166.006927 135.124222,164.171677 137.718658,162.152740 
z"/>
<path fill="#FDFAF6" opacity="1.000000" stroke="none" 
	d="
M121.739273,169.201279 
	C121.788116,169.445496 121.555977,169.523056 121.168961,169.426529 
	C121.052048,169.373001 121.496246,169.155182 121.739273,169.201279 
z"/>
<path fill="#FDFAF6" opacity="1.000000" stroke="none" 
	d="
M219.929779,219.752869 
	C216.787735,218.384033 213.629669,216.638412 210.171417,214.761108 
	C210.780121,211.202271 212.359665,209.930695 215.085571,213.153381 
	C216.779526,215.156082 218.309967,217.297119 219.929779,219.752869 
z"/>
<path fill="#FDFAF6" opacity="1.000000" stroke="none" 
	d="
M190.367798,229.044327 
	C190.441071,232.715195 190.179535,236.444687 189.806183,240.594177 
	C189.122406,240.701904 188.022995,240.307098 188.057022,240.089661 
	C188.632095,236.414352 189.348145,232.761093 190.367798,229.044327 
z"/>
<path fill="#FDFAF6" opacity="1.000000" stroke="none" 
	d="
M202.056107,214.492310 
	C201.282059,215.205475 200.418839,215.576324 199.272156,215.957275 
	C199.437958,214.888611 199.887222,213.809845 200.336487,212.731079 
	C200.879959,213.204056 201.423447,213.677017 202.056107,214.492310 
z"/>
<path fill="#FDFAF6" opacity="1.000000" stroke="none" 
	d="
M196.842255,217.031494 
	C196.257584,218.094833 195.432999,218.983917 194.325180,219.988297 
	C194.895416,219.021484 195.748871,217.939362 196.842255,217.031494 
z"/>
<path fill="#FDFAF6" opacity="1.000000" stroke="none" 
	d="
M188.771301,247.076447 
	C189.045563,247.451584 189.089859,247.902481 189.026382,248.678177 
	C188.792847,248.386047 188.667099,247.769119 188.771301,247.076447 
z"/>
<path fill="#FB6B27" opacity="1.000000" stroke="none" 
	d="
M187.387650,274.861938 
	C187.112106,274.548492 187.071167,274.096375 186.967224,273.308472 
	C186.904236,272.972748 187.123947,272.578613 187.239960,272.385193 
	C187.444733,273.035614 187.533493,273.879456 187.387650,274.861938 
z"/>
<path fill="#FDFAF6" opacity="1.000000" stroke="none" 
	d="
M188.608276,253.131714 
	C188.685349,253.028259 188.777924,253.502548 188.699295,253.730972 
	C188.456314,253.732315 188.426498,253.490906 188.608276,253.131714 
z"/>
</svg>